<?xml version="1.0" encoding="UTF-8" standalone="yes"?>
<svg xmlns="http://www.w3.org/2000/svg" viewBox="0 0 50 50" width="100" height="100" fill="#ffffff">
  <path d="M 7.90625 6.96875 C 7.863281 6.976563 7.820313 6.988281 7.78125 7 L 4.5 7 C 2.039063 7 0 9.039063 0 11.5 C 0 13.960938 2.039063 16 4.5 16 L 7 16 L 7 37.40625 C 7 40.464844 9.535156 43 12.59375 43 L 37.09375 43 C 40.335938 43 42.90625 40.324219 42.90625 37.1875 L 42.90625 16 L 45.5 16 C 47.960938 16 50 13.960938 50 11.5 C 50 9.039063 47.960938 7 45.5 7 L 8.1875 7 C 8.097656 6.976563 8 6.964844 7.90625 6.96875 Z M 4.5 9 L 7 9 L 7 14 L 4.5 14 C 3.160156 14 2 12.839844 2 11.5 C 2 10.160156 3.160156 9 4.5 9 Z M 9 9 L 27 9 L 27 41 L 12.59375 41 C 10.652344 41 9 39.347656 9 37.40625 Z M 35 9 L 40.90625 9 L 40.90625 37.1875 C 40.90625 39.25 39.25 41 37.09375 41 L 35 41 Z M 42.90625 9 L 45.5 9 C 46.839844 9 48 10.160156 48 11.5 C 48 12.839844 46.839844 14 45.5 14 L 43 14 L 43 10 L 42.90625 10 Z"/>
</svg>